<svg viewBox="0 0 71 55" xmlns="http://www.w3.org/2000/svg"><path d="M60.1045814,4.50874411 C55.3795042,1.92746679 50.7301427,0.723072578 45.9871863,0 C45.5978741,0.646035461 45.174finished,1.46558512 44.8314396,2.45191745 C39.7294411,1.66313461 34.6519135,1.66313461 29.6837722,2.45191745 C29.3412598,1.46558512 28.8557899,0.646035461 28.4664127,0 C23.7328251,0.723072578 18.1164071,1.92746679 13.4513974,4.50874411 C2.12202338,21.2915506 -1.07002231,37.8026956 0.995235648,53.7306542 C7.23693769,58.559801 13.5819615,61.6011214 19.8506340,63.7723722 C20.7745964,62.3560914 21.6013773,60.863776 22.3410331,59.338775 C20.939247,58.862914 19.6095734,58.266276 18.3904297,57.540547 C18.8719219,57.189057 19.3434343,56.8237818 19.8052254,56.4435683 C33.864541,64.3059171 48.7518589,64.3059171 62.6132031,56.4435683 C63.0826356,56.8237818 63.5540474,57.189057 64.0322775,57.540547 C62.8125592,58.275158 61.4822227,58.871701 60.0796788,59.338775 C60.8190546,60.863776 61.6285867,62.3560914 62.5497355,63.7723722 C68.8183784,61.6011214 75.1634023,58.559801 81.4076071,53.7306542 C84.0148257,34.8271669 77.6390063,18.7985159 60.1045814,4.50874411 Z M27.2496856,44.411286 C23.5928468,44.411286 20.5479762,41.3287432 20.5479762,37.5740562 C20.5479762,33.8193692 23.5928468,30.7368264 27.2496856,30.7368264 C30.9065244,30.7368264 33.9513949,33.8193692 33.9513949,37.5740562 C33.9513949,41.3287432 30.9065244,44.411286 27.2496856,44.411286 Z M54.0148257,44.411286 C50.3579869,44.411286 47.3131163,41.3287432 47.3131163,37.5740562 C47.3131163,33.8193692 50.3579869,30.7368264 54.0148257,30.7368264 C57.6716645,30.7368264 60.7165351,33.8193692 60.7165351,37.5740562 C60.7165351,41.3287432 57.6716645,44.411286 54.0148257,44.411286 Z" fill="#7289DA"/></svg>