<svg viewBox="0 0 48 48" xmlns="http://www.w3.org/2000/svg"><circle cx="24" cy="24" r="23" fill="#1DB954"/><path d="M33.5,16c-5.2,-3-13.8,-3.3-18.8,-1.8c-0.5,0.2-1,-0.1-1.2,-0.6c-0.2,-0.5,0.1,-1,0.6,-1.2c5.4,-1.6,14.4,-1.3,20.1,2.1c0.4,0.3,0.6,0.8,0.3,1.3c-0.3,0.4,-0.8,0.6,-1.3,0.3" fill="white"/><path d="M31,21c-4.3,-2.5,-10.8,-3-15.8,-1.7c-0.4,0.1,-0.9,-0.1,-1,-0.5c-0.1,-0.4,0.1,-0.9,0.5,-1C20,16.5,27.2,17,31.9,19.7c0.4,0.2,0.5,0.7,0.3,1.1c-0.2,0.4,-0.7,0.5,-1.1,0.3" fill="white"/><path d="M29,26c-3.5,-2-8.8,-2.4,-12.8,-1.3c-0.3,0.1,-0.7,-0.1,-0.8,-0.4c-0.1,-0.3,0.1,-0.7,0.4,-0.8c4.3,-1.2,10.1,-0.8,14,1.4c0.3,0.2,0.4,0.6,0.2,0.9c-0.2,0.3,-0.6,0.4,-0.9,0.2" fill="white"/></svg>